<?xml version="1.0" encoding="UTF-8"?>
<svg width="328px" height="42px" viewBox="0 0 328 42" version="1.1" xmlns="http://www.w3.org/2000/svg" xmlns:xlink="http://www.w3.org/1999/xlink">
    <!-- Generator: Sketch 62 (91390) - https://sketch.com -->
    <title>Fill 1</title>
    <desc>Created with Sketch.</desc>
    <g id="Page-1" stroke="none" stroke-width="1" fill="none" fill-rule="evenodd">
        <g id="MadetheEdit_Logo_CMYK_Black" fill="#000000">
            <path d="M38.513,10.629 L39.996,6.729 L39.996,37.276 L36.041,41.122 L36.041,41.451 L53.842,41.451 L53.842,41.122 L49.885,37.276 L49.885,4.421 L53.842,0.575 L53.842,0.246 L40.051,0.246 L39.996,0.19 L27.69,28.156 L26.041,24.749 L12.855,0.246 L0.164,0.246 L0.164,0.904 L4.504,4.585 L4.504,37.276 L0,41.122 L0,41.451 L12.306,41.451 L12.306,41.122 L7.251,37.276 L7.251,10.464 L23.569,41.78 L24.724,41.78 L38.513,10.629 Z M67.96,37.936 C65.709,37.936 64.225,36.396 64.225,33.429 C64.225,31.946 64.61,30.902 65.16,29.914 L71.202,26.891 L71.202,36.615 C70.433,37.276 69.169,37.936 67.96,37.936 L67.96,37.936 Z M71.478,41.451 L84.773,41.451 L84.773,41.122 L80.818,37.55 L80.818,26.233 C80.818,18.815 79.773,13.43 68.95,13.43 C64.72,13.43 60.544,13.761 56.314,13.98 L56.314,24.804 L56.534,24.804 L65.105,15.244 L65.214,15.244 C69.83,15.244 71.202,17.496 71.202,23.595 L71.202,25.464 L56.643,29.254 C55.82,30.188 54.5,32.44 54.5,34.912 C54.5,38.43 57.247,42 62.467,42 C66.423,42 69.664,39.748 71.478,37.99 L71.478,41.451 Z M101.584,37.824 C97.518,37.824 94.771,34.144 94.771,27.605 C94.771,20.849 97.354,16.122 101.418,16.122 C102.958,16.122 104.276,16.616 105.43,17.605 L105.43,36.944 C104.167,37.495 102.792,37.824 101.584,37.824 L101.584,37.824 Z M105.705,41.451 L119,41.451 L119,41.122 L115.044,37.55 L115.044,0.246 L101.475,0.246 L101.475,0.575 L105.43,5.136 L105.43,14.97 C103.396,13.98 101.418,13.43 98.946,13.43 C93.673,13.43 84.882,16.673 84.882,28.539 C84.882,37.385 89.717,42 96.969,42 C100.155,42 103.067,40.352 105.705,38.539 L105.705,41.451 Z M132.68,42 C138.394,42 142.405,39.527 145.866,36.232 L145.866,35.407 C143.778,36.45 141.471,37.001 139.273,37.001 C133.064,37.001 130.152,33.649 129.108,29.034 L138.339,27.11 L146.581,25.407 C145.041,17.388 140.537,13.43 133.449,13.43 C124.109,13.43 118.78,20.355 118.78,28.156 C118.78,35.956 124.549,42 132.68,42 L132.68,42 Z M128.614,24.198 C128.614,19.365 129.877,15.189 133.064,15.189 C135.318,15.189 136.361,18.98 136.69,24.584 L128.834,27.605 C128.668,26.507 128.614,25.353 128.614,24.198 L128.614,24.198 Z M165.149,38.265 L165.149,37.659 C163.392,38.539 161.414,39.088 159.93,39.088 C156.964,39.088 155.975,37.716 155.975,34.692 L155.975,17.331 L164.38,17.331 L164.38,15.244 L155.975,15.244 L155.975,7.937 L155.37,7.937 L151.305,15.244 L147.073,15.244 L147.073,17.331 L151.305,17.331 L151.305,33.154 C151.305,37.879 151.525,42 157.293,42 C159.985,42 163.008,40.407 165.149,38.265 L165.149,38.265 Z M177.895,41.122 L173.94,38.814 L173.94,20.408 L174.269,20.243 C177.235,18.65 179.708,17.771 182.731,17.771 C187.015,17.771 188.609,19.528 188.609,23.924 L188.609,38.814 L184.654,41.122 L184.654,41.451 L197.289,41.451 L197.289,41.122 L193.333,38.814 L193.333,23.869 C193.333,17.276 191.082,14.805 185.643,14.805 C181.961,14.805 178.004,16.233 174.269,18.65 L173.94,18.871 L173.94,0.246 L165.314,0.246 L165.314,0.575 L169.27,3.652 L169.27,38.814 L165.314,41.122 L165.314,41.451 L177.895,41.451 L177.895,41.122 Z M210.215,42 C215.16,42 219.006,39.802 221.149,37.44 L221.149,36.891 C218.732,38.373 216.479,39.033 213.457,39.033 C207.469,39.033 203.623,35.353 202.525,29.693 L220.929,25.901 L221.752,25.793 C220.709,18.925 216.369,14.695 210.215,14.695 C202.468,14.695 197.304,20.518 197.304,28.539 C197.304,36.507 202.525,42 210.215,42 L210.215,42 Z M202.194,26.067 C202.194,20.408 205.161,16.398 209.941,16.398 C213.457,16.398 215.874,19.528 216.479,24.31 L202.359,28.65 C202.249,27.825 202.194,26.947 202.194,26.067 L202.194,26.067 Z M223.04,41.451 L253.916,41.451 L253.916,32.111 L253.696,32.111 L247.818,39.419 L231.939,39.419 L231.939,21.672 L245.786,21.672 L249.576,27.002 L249.795,27.002 L249.795,14.859 L249.576,14.859 L245.786,19.64 L231.939,19.64 L231.939,2.388 L247.377,2.388 L253.147,9.475 L253.367,9.475 L253.367,0.246 L223.04,0.246 L223.04,0.575 L226.995,3.213 L226.995,38.539 L223.04,41.122 L223.04,41.451 Z M270.563,39.362 C265.125,39.362 261.223,34.858 261.223,28.484 C261.223,21.343 264.793,16.782 270.343,16.782 C272.432,16.782 274.847,17.442 276.771,19.034 L276.771,37.165 C274.847,38.43 272.815,39.362 270.563,39.362 L270.563,39.362 Z M277.045,41.451 L285.398,41.451 L285.398,41.122 L281.441,38.594 L281.441,0.246 L272.815,0.246 L272.815,0.575 L276.771,3.652 L276.771,16.893 C274.629,15.519 272.321,14.695 269.575,14.695 C263.421,14.695 256.279,18.54 256.279,28.925 C256.279,36.727 261.003,42 268.2,42 C271.717,42 274.464,40.462 277.045,38.373 L277.045,41.451 Z M294.297,9.255 C296.055,9.255 297.593,8.046 297.593,5.959 C297.593,4.036 296.055,2.718 294.297,2.718 C292.538,2.718 291,4.036 291,5.959 C291,8.046 292.538,9.255 294.297,9.255 L294.297,9.255 Z M300.615,41.451 L300.615,41.122 L296.659,38.594 L296.659,15.244 L287.979,15.244 L287.979,15.573 L291.935,18.54 L291.935,38.594 L287.979,41.122 L287.979,41.451 L300.615,41.451 Z M318.69,38.265 L318.69,37.659 C316.932,38.539 314.955,39.088 313.471,39.088 C310.504,39.088 309.516,37.716 309.516,34.692 L309.516,17.331 L317.921,17.331 L317.921,15.244 L309.516,15.244 L309.516,7.937 L308.911,7.937 L304.846,15.244 L300.615,15.244 L300.615,17.331 L304.846,17.331 L304.846,33.154 C304.846,37.879 305.066,42 310.833,42 C313.526,42 316.547,40.407 318.69,38.265 L318.69,38.265 Z M323.942,42 C325.809,42 327.292,40.736 327.292,38.647 C327.292,36.67 325.809,35.353 323.942,35.353 C322.127,35.353 320.644,36.67 320.644,38.647 C320.644,40.736 322.127,42 323.942,42 L323.942,42 Z" id="Fill-1"></path>
        </g>
    </g>
</svg>